<svg xmlns="http://www.w3.org/2000/svg" width="36.5" height="36.5" viewBox="0 0 36.5 36.5">
  <path id="Path_895" data-name="Path 895" d="M20.293,2.293a18,18,0,1,0,18,18,18.014,18.014,0,0,0-18-18Zm0,.7a17.3,17.3,0,1,1-17.3,17.3,17.328,17.328,0,0,1,17.3-17.3Zm0,8.879a.342.342,0,0,0-.353.353v15.3l-4.626-4.626a.33.33,0,0,0-.49,0,.335.335,0,0,0,0,.493l5.221,5.221a.328.328,0,0,0,.249.1.321.321,0,0,0,.249-.1l5.221-5.221a.335.335,0,0,0,0-.493.331.331,0,0,0-.49,0l-4.626,4.626v-15.3a.342.342,0,0,0-.353-.353Z" transform="translate(-2.043 -2.043)" fill="#222" stroke="#222" stroke-width="0.5"/>
</svg>
