<svg xmlns="http://www.w3.org/2000/svg" xmlns:xlink="http://www.w3.org/1999/xlink" width="84" height="84" viewBox="0 0 84 84">
  <defs>
    <linearGradient id="linear-gradient" x2="1" y2="1" gradientUnits="objectBoundingBox">
      <stop offset="0" stop-color="#4c56a7"/>
      <stop offset="1" stop-color="#0b1036" stop-opacity="0"/>
    </linearGradient>
  </defs>
  <g id="Group_280" data-name="Group 280" transform="translate(-101 -1980)">
    <g id="Rectangle_1470" data-name="Rectangle 1470" transform="translate(101 1980)" stroke="#4b57b2" stroke-width="1" fill="url(#linear-gradient)">
      <rect width="84" height="84" rx="8" stroke="none"/>
      <rect x="0.5" y="0.5" width="83" height="83" rx="7.5" fill="none"/>
    </g>
    <g id="Group_55" data-name="Group 55" transform="translate(121.521 1999.625)">
      <path id="Path_888" data-name="Path 888" d="M38.379,23.7a1.263,1.263,0,0,0-1.072-1.072c-3.931-.476-6.909.238-8.933,2.263-1.787,1.787-2.62,4.526-2.62,8.457l-2.5,1.548V25.726c4.05-3.931,5.956-7.623,5.717-11.2-.119-3.454-2.144-6.67-6.194-9.886a1.084,1.084,0,0,0-1.429,0c-4.05,3.216-6.075,6.432-6.194,9.886-.119,3.573,1.668,7.266,5.717,11.2V34.9l-2.62-1.668c0-3.931-.834-6.67-2.62-8.457-1.906-2.025-4.884-2.74-8.933-2.263a1.263,1.263,0,0,0-1.072,1.072c-.476,3.812.238,6.551,1.906,8.457,1.787,2.025,4.645,2.978,8.814,2.978H16.7l4.05,2.62v1.31a1.191,1.191,0,1,0,2.382,0v-1.31l4.05-2.62h.357c4.169,0,7.028-.953,8.814-2.978C38.141,30.252,38.737,27.394,38.379,23.7ZM9.435,30.61c-1.072-1.191-1.548-3.216-1.429-5.717,2.74-.238,4.645.357,5.956,1.668,1.191,1.31,1.906,3.335,1.906,6.194C12.77,32.754,10.626,31.92,9.435,30.61ZM22.061,11.79a1.194,1.194,0,0,0-1.191,1.191v9.41c-2.382-2.74-3.454-5.241-3.335-7.623.119-2.5,1.668-5,4.526-7.5,2.978,2.5,4.407,4.884,4.526,7.5.119,2.382-.953,4.884-3.335,7.623v-9.41A1.281,1.281,0,0,0,22.061,11.79ZM34.687,30.61q-1.787,2.144-6.432,2.144c.119-2.978.715-5,1.906-6.194a6.835,6.835,0,0,1,5-1.668h.953Q36.295,28.644,34.687,30.61Z" transform="translate(0 0)" fill="#fff" stroke="#151b46" stroke-width="0.5"/>
    </g>
  </g>
</svg>
