<svg xmlns="http://www.w3.org/2000/svg" xmlns:xlink="http://www.w3.org/1999/xlink" width="84" height="84" viewBox="0 0 84 84">
  <defs>
    <linearGradient id="linear-gradient" x2="1" y2="1" gradientUnits="objectBoundingBox">
      <stop offset="0" stop-color="#4c56a7"/>
      <stop offset="1" stop-color="#0b1036" stop-opacity="0"/>
    </linearGradient>
  </defs>
  <g id="Group_281" data-name="Group 281" transform="translate(-101 -1980)">
    <g id="Rectangle_1470" data-name="Rectangle 1470" transform="translate(101 1980)" stroke="#4b57b2" stroke-width="1" fill="url(#linear-gradient)">
      <rect width="84" height="84" rx="8" stroke="none"/>
      <rect x="0.5" y="0.5" width="83" height="83" rx="7.5" fill="none"/>
    </g>
    <g id="Group_53" data-name="Group 53" transform="translate(121.002 2000)">
      <path id="Path_889" data-name="Path 889" d="M22,5A17.05,17.05,0,0,0,5,21.886,17.026,17.026,0,0,0,21.885,39H22A17,17,0,1,0,22,5Zm0,31.694h-.113A14.772,14.772,0,0,1,11.5,32.312,14.527,14.527,0,0,1,7.3,21.924,14.714,14.714,0,1,1,22,36.694Z" transform="translate(0 0)" fill="#fff"/>
      <path id="Path_890" data-name="Path 890" d="M46.678,28.793A1.094,1.094,0,0,0,45.585,27.7H33.6a1.093,1.093,0,0,0,0,2.186h3.769a3.949,3.949,0,0,1,3.769,2.752H33.561a1.093,1.093,0,0,0,0,2.186H41.25a3.961,3.961,0,0,1-3.845,3.015H33.448a1.135,1.135,0,0,0-1.018.641,1.024,1.024,0,0,0,.188,1.168l6.37,6.86a1.085,1.085,0,0,0,.792.339,1.2,1.2,0,0,0,.754-.3A1.117,1.117,0,0,0,40.609,45l-4.636-4.975h1.395a6.2,6.2,0,0,0,6.106-5.2h2.111a1.093,1.093,0,0,0,0-2.186H43.436a6.3,6.3,0,0,0-1.357-2.752h3.505A1.094,1.094,0,0,0,46.678,28.793Z" transform="translate(-16.988 -14.1)" fill="#fff"/>
    </g>
  </g>
</svg>
