<svg xmlns="http://www.w3.org/2000/svg" width="24.3" height="24.3" viewBox="0 0 24.3 24.3">
  <g id="Group_195" data-name="Group 195" transform="translate(0.15 0.15)">
    <path id="Path_1138" data-name="Path 1138" d="M.5,9.85a.472.472,0,0,0-.5.5v3.3a.472.472,0,0,0,.5.5H2.55a9.805,9.805,0,0,0,1.25,3L2.35,18.6a.471.471,0,0,0,0,.7L4.7,21.65a.483.483,0,0,0,.7,0L6.85,20.2a8.876,8.876,0,0,0,3,1.25V23.5a.472.472,0,0,0,.5.5h3.3a.472.472,0,0,0,.5-.5V21.45a9.805,9.805,0,0,0,3-1.25l1.45,1.45a.483.483,0,0,0,.7,0l2.35-2.35a.516.516,0,0,0,0-.7L20.2,17.15a8.876,8.876,0,0,0,1.25-3H23.5a.472.472,0,0,0,.5-.5v-3.3a.472.472,0,0,0-.5-.5H21.45a9.805,9.805,0,0,0-1.25-3L21.65,5.4a.464.464,0,0,0,0-.7L19.3,2.35a.483.483,0,0,0-.7,0L17.15,3.8a8.876,8.876,0,0,0-3-1.25V.5a.472.472,0,0,0-.5-.5h-3.3a.472.472,0,0,0-.5.5V2.55a9.805,9.805,0,0,0-3,1.25L5.4,2.35a.471.471,0,0,0-.7,0L2.35,4.7a.471.471,0,0,0,0,.7L3.8,6.85a8.876,8.876,0,0,0-1.25,3H.5Zm2.95.6A8.262,8.262,0,0,1,4.85,7.1a.529.529,0,0,0-.05-.65L3.4,5.05,5.05,3.4l1.4,1.4a.524.524,0,0,0,.65.05,9.018,9.018,0,0,1,3.35-1.4.487.487,0,0,0,.4-.5V1h2.3V2.95a.487.487,0,0,0,.4.5,8.262,8.262,0,0,1,3.35,1.4.529.529,0,0,0,.65-.05l1.4-1.4L20.6,5.05l-1.4,1.4a.524.524,0,0,0-.05.65,9.018,9.018,0,0,1,1.4,3.35.487.487,0,0,0,.5.4H23v2.3H21.05a.487.487,0,0,0-.5.4,8.262,8.262,0,0,1-1.4,3.35.529.529,0,0,0,.05.65l1.4,1.4L18.95,20.6l-1.4-1.4a.524.524,0,0,0-.65-.05,9.018,9.018,0,0,1-3.35,1.4.487.487,0,0,0-.4.5V23h-2.3V21.05a.487.487,0,0,0-.4-.5,8.262,8.262,0,0,1-3.35-1.4.529.529,0,0,0-.65.05l-1.4,1.4L3.4,18.95l1.4-1.4a.524.524,0,0,0,.05-.65,9.018,9.018,0,0,1-1.4-3.35.487.487,0,0,0-.5-.4H1v-2.3H2.95A.538.538,0,0,0,3.45,10.45Z" fill="#efa42c" stroke="#efa42c" stroke-width="0.3"/>
    <path id="Path_1139" data-name="Path 1139" d="M15.885,22.469A6.585,6.585,0,1,0,9.3,15.885,6.6,6.6,0,0,0,15.885,22.469Zm1.209-4.031v3.046a5.267,5.267,0,0,1-1.209.134,4.882,4.882,0,0,1-1.165-.134V18.438a.47.47,0,0,0-.224-.4,3.184,3.184,0,0,1-1.747-2.822,3.131,3.131,0,0,1,.717-1.971v2.24a.423.423,0,0,0,.448.448H17.99a.44.44,0,0,0,.448-.448v-2.24a3.09,3.09,0,0,1,.672,1.971,3.134,3.134,0,0,1-1.747,2.822A.43.43,0,0,0,17.094,18.438ZM15.885,10.2A5.679,5.679,0,0,1,17.945,21.17V18.662a4.04,4.04,0,0,0,.224-6.853.462.462,0,0,0-.717.358v2.822h-3.18V12.167a.467.467,0,0,0-.717-.358,4.041,4.041,0,0,0,.224,6.853V21.17A5.679,5.679,0,0,1,15.885,10.2Z" transform="translate(-3.885 -3.885)" fill="#efa42c" stroke="#efa42c" stroke-width="0.3"/>
  </g>
</svg>
