<svg xmlns="http://www.w3.org/2000/svg" width="24" height="19.22" viewBox="0 0 24 19.22">
  <g id="Group_157" data-name="Group 157" transform="translate(-2.45 -11.9)">
    <path id="Path_1144" data-name="Path 1144" d="M10.444,16.292a3.589,3.589,0,0,1,.291-1.892,15.786,15.786,0,0,0-7.958,4.294,1.027,1.027,0,0,0,0,1.5.973.973,0,0,0,.752.315.973.973,0,0,0,.752-.315,13.5,13.5,0,0,1,6.211-3.542Z" transform="translate(0 -1.893)" fill="#ed8277"/>
    <path id="Path_1145" data-name="Path 1145" d="M71.358,18.794A15.786,15.786,0,0,0,63.4,14.5a3.589,3.589,0,0,1,.291,1.892l-.049.364A13.941,13.941,0,0,1,69.854,20.3a1.064,1.064,0,0,0,1.5-1.5Z" transform="translate(-45.217 -1.969)" fill="#ed8277"/>
    <path id="Path_1146" data-name="Path 1146" d="M21.184,34.3a10.974,10.974,0,0,0-4.707,2.814,1.027,1.027,0,0,0,0,1.5.973.973,0,0,0,.752.315,1.009,1.009,0,0,0,.752-.315,8.963,8.963,0,0,1,3.494-2.159Z" transform="translate(-10.376 -16.668)" fill="#ed8277"/>
    <path id="Path_1147" data-name="Path 1147" d="M62.267,34.3,62,36.459a8.708,8.708,0,0,1,3.469,2.159,1.069,1.069,0,0,0,1.5,0,1.027,1.027,0,0,0,0-1.5A10.974,10.974,0,0,0,62.267,34.3Z" transform="translate(-44.157 -16.668)" fill="#ed8277"/>
    <path id="Path_1148" data-name="Path 1148" d="M30.234,55.359a1.069,1.069,0,0,0,0,1.5,1.047,1.047,0,0,0,.752.315,1.009,1.009,0,0,0,.752-.315,4.488,4.488,0,0,1,.776-.607L32.224,54A6.178,6.178,0,0,0,30.234,55.359Z" transform="translate(-20.501 -31.38)" fill="#ed8277"/>
    <path id="Path_1149" data-name="Path 1149" d="M59.691,54,59.4,56.256a4.573,4.573,0,0,1,.752.607,1.069,1.069,0,0,0,1.5,0,1.027,1.027,0,0,0,0-1.5A5.829,5.829,0,0,0,59.691,54Z" transform="translate(-42.495 -31.38)" fill="#ed8277"/>
    <path id="Path_1150" data-name="Path 1150" d="M42.9,24.831a2.163,2.163,0,0,1,.679-.073,3.7,3.7,0,0,1,.728.073L45.619,14.2a1,1,0,0,0,.024-.267A2.05,2.05,0,0,0,43.605,11.9a2.08,2.08,0,0,0-2.038,2.281Z" transform="translate(-29.146)" fill="#ed8277"/>
    <path id="Path_1151" data-name="Path 1151" d="M43.638,71.1A2.05,2.05,0,1,0,45.7,73.138,2.05,2.05,0,0,0,43.638,71.1Z" transform="translate(-29.178 -44.08)" fill="#ed8277"/>
  </g>
</svg>
