<svg xmlns="http://www.w3.org/2000/svg" width="23.604" height="19.469" viewBox="0 0 23.604 19.469">
  <g id="Group" transform="translate(-7.455 -14.888)">
    <path id="Path" d="M8.576,21.574a1.109,1.109,0,0,0,.776-.333,14.142,14.142,0,0,1,9.9-4.132,13.615,13.615,0,0,1,9.9,3.965,1.118,1.118,0,1,0,1.581-1.581,15.805,15.805,0,0,0-11.48-4.6A16.332,16.332,0,0,0,7.8,19.661a1.109,1.109,0,0,0,.776,1.913Z" transform="translate(0 0)" fill="#8dd69c"/>
    <path id="Path-2" data-name="Path" d="M36.55,37.979a1.109,1.109,0,0,0,0-1.581,10.481,10.481,0,0,0-7.681-3.106,11.008,11.008,0,0,0-7.625,3.272A1.109,1.109,0,1,0,22.8,38.118a8.818,8.818,0,0,1,6.1-2.606A8.291,8.291,0,0,1,35,37.979a1.109,1.109,0,0,0,1.553,0Z" transform="translate(-9.645 -13.3)" fill="#8dd69c"/>
    <path id="Path-3" data-name="Path" d="M42.76,55.318a1.109,1.109,0,0,0,0-1.581,5.407,5.407,0,0,0-4.048-1.553A5.906,5.906,0,0,0,34.747,53.9a1.118,1.118,0,0,0,1.581,1.581,3.514,3.514,0,0,1,4.88-.166A1.109,1.109,0,0,0,42.76,55.318Z" transform="translate(-19.488 -26.951)" fill="#8dd69c"/>
    <circle id="Path-4" data-name="Path" cx="2.191" cy="2.191" r="2.191" transform="translate(17.061 29.976)" fill="#8dd69c"/>
  </g>
</svg>
