<svg xmlns="http://www.w3.org/2000/svg" xmlns:xlink="http://www.w3.org/1999/xlink" width="84" height="84" viewBox="0 0 84 84">
  <defs>
    <linearGradient id="linear-gradient" x2="1" y2="1" gradientUnits="objectBoundingBox">
      <stop offset="0" stop-color="#4c56a7"/>
      <stop offset="1" stop-color="#0b1036" stop-opacity="0"/>
    </linearGradient>
  </defs>
  <g id="Group_279" data-name="Group 279" transform="translate(-101 -1980)">
    <g id="Rectangle_1470" data-name="Rectangle 1470" transform="translate(101 1980)" stroke="#4b57b2" stroke-width="1" fill="url(#linear-gradient)">
      <rect width="84" height="84" rx="8" stroke="none"/>
      <rect x="0.5" y="0.5" width="83" height="83" rx="7.5" fill="none"/>
    </g>
    <path id="Path_891" data-name="Path 891" d="M40.662,19.465,23.5,12.9a6.148,6.148,0,0,0-4.415,0L1.915,19.465a.977.977,0,0,0,0,1.823l7.743,2.963v6.968a.964.964,0,0,0,.488.847,23.965,23.965,0,0,0,22.285,0,.964.964,0,0,0,.488-.847V24.251l3.419-1.3v8.108a2.872,2.872,0,0,0-1.908,2.7v3.158a.977.977,0,0,0,.977.977H39.23a.977.977,0,0,0,.977-.977V33.759a2.885,2.885,0,0,0-1.915-2.7V22.193l2.37-.905a.977.977,0,0,0,0-1.823Zm-2.41,16.482H36.384V33.759a.938.938,0,0,1,1.869,0ZM19.778,14.724a4.239,4.239,0,0,1,3.022,0l14.77,5.653L22.786,26.029a4.239,4.239,0,0,1-3.022,0L5.008,20.376Zm11.188,15.9a23.131,23.131,0,0,1-9.677,2.234,23.131,23.131,0,0,1-9.677-2.234V24.994l7.47,2.859a6.148,6.148,0,0,0,4.415,0l7.47-2.859Z" transform="translate(121.711 1996.51)" fill="#fff"/>
  </g>
</svg>
